Jackass.3.5.DVDRip.XviD-EXViD


EXViD aims to iNTERNAL those releases which have been lost in the archives.
EXViD aims to PRE non-internal releases which have poor sources and are likely
skipped by others.
 
http://www.imdb.com/title/tt1753968/

Subtitles: EN, EN HI, NL, DE, DA, FI, FR, IT, NO, ES, SV
Date: 2011.06

Director: Jeff Tremaine

Genres: Documentary

Plot:

Scenes not used in Jackass 3D.

Cast:

Jason 'Wee Man' Acu˝a
Ryan Dunn 
Dave England 
Johnny Knoxville 
Preston Lacy 
Bam Margera 
Ehren McGhehey  
Chris Pontius 
Steve-O    

Stats:

Format                           : AVI
Format/Info                      : Audio Video Interleave
File size                        : 700 MiB
Duration                         : 1h 21mn
Overall bit rate                 : 1 203 Kbps
Writing application              : VirtualDubMod 1.5.10.2 (build 2540/release)
Writing library                  : VirtualDubMod build 2540/release

Video
ID                               : 0
Format                           : MPEG-4 Visual
Format profile                   : Advanced Simple@L5
Format settings, BVOP            : Yes
Format settings, QPel            : No
Format settings, GMC             : No warppoints
Format settings, Matrix          : Default (H.263)
Muxing mode                      : Packed bitstream
Codec ID                         : XVID
Codec ID/Hint                    : XviD
Duration                         : 1h 21mn
Bit rate                         : 995 Kbps
Width                            : 640 pixels
Height                           : 352 pixels
Display aspect ratio             : 16:9
Frame rate                       : 25.000 fps
Color space                      : YUV
Chroma subsampling               : 4:2:0
Bit depth                        : 8 bits
Scan type                        : Progressive
Bits/(Pixel*Frame)               : 0.177
Stream size                      : 579 MiB (83%)
Writing library                  : XviD 62

Audio
ID                               : 1
Format                           : MPEG Audio
Format version                   : Version 1
Format profile                   : Layer 3
Mode                             : Joint stereo
Mode extension                   : MS Stereo
Codec ID                         : 55
Codec ID/Hint                    : MP3
Duration                         : 1h 21mn
Bit rate mode                    : Variable
Bit rate                         : 192 Kbps
Channel(s)                       : 2 channels
Sampling rate                    : 48.0 KHz
Stream size                      : 114 MiB (16%)
Alignment                        : Aligned on interleaves
Interleave, duration             : 24 ms (0.60 video frame)
Interleave, preload duration     : 94 ms
Writing library                  : LAME3.90.
Encoding settings                : -m j -V 4 -q 2 -lowpass 19.6 --abr 192




Release notes:
enjoy!

Looking for:
75TB+ Archives
DUTCH/FLEMiSH Archives
                                                                                                    
Greets: CRBS EPiSODE FiCO FLS iLS KLASSiGER LiPSYNC MADE NODLABS RUNNER SPRiNTER

 
http://www.leetleech.org/images/61069641022601390687.png 
http://www.leetleech.org/images/82709341645963206360.png 
http://www.leetleech.org/images/17819700943726370331.png 
http://www.leetleech.org/images/68070101970794096102.png 
http://www.leetleech.org/images/00332052715078351699.png